<svg width="3875" height="5993" viewBox="0 0 3875 5993" fill="none" xmlns="http://www.w3.org/2000/svg">
<rect x="917.242" y="1127.77" width="2040" height="4160" fill="#D9D9D9"/>
<rect x="497.242" y="5352.17" width="2880" height="240" fill="#D9D9D9"/>
<rect x="497.242" y="5352.17" width="2880" height="240" fill="#D9D9D9"/>
<rect x="257.242" y="5672.17" width="3360" height="320" fill="#D9D9D9"/>
<rect x="917.249" width="2040" height="120" fill="#D9D9D9"/>
<path d="M494.042 783.146C459.618 718.598 438.102 472.196 737.472 472.197C979.783 492.968 1022.73 735.04 960.041 914.193C897.348 1093.35 696.053 1185.92 510.438 1120.97C441.464 1096.83 384.36 1054.33 343.047 1001.27" stroke="#D9D9D9" stroke-width="80" stroke-linecap="round"/>
<path d="M3380.44 783.146C3414.87 718.598 3436.38 472.196 3137.01 472.197C2894.7 492.968 2851.75 735.04 2914.44 914.193C2977.14 1093.35 3178.43 1185.92 3364.05 1120.97C3433.02 1096.83 3490.12 1054.33 3531.44 1001.27" stroke="#D9D9D9" stroke-width="80" stroke-linecap="round"/>
<line x1="1462.2" y1="1046.36" x2="1462.2" y2="526.362" stroke="#D9D9D9" stroke-width="60"/>
<line x1="1142.2" y1="1046.36" x2="1142.2" y2="526.362" stroke="#D9D9D9" stroke-width="60"/>
<line x1="1782.2" y1="1046.36" x2="1782.2" y2="526.362" stroke="#D9D9D9" stroke-width="60"/>
<line x1="2102.2" y1="1046.36" x2="2102.2" y2="526.362" stroke="#D9D9D9" stroke-width="60"/>
<line x1="2422.2" y1="1046.36" x2="2422.2" y2="526.362" stroke="#D9D9D9" stroke-width="60"/>
<line x1="2742.2" y1="1046.36" x2="2742.2" y2="526.362" stroke="#D9D9D9" stroke-width="60"/>
<line x1="897.249" y1="523.037" x2="2977.25" y2="523.037" stroke="#D9D9D9" stroke-width="80"/>
<path d="M728.009 222.02C604.051 225.265 430.712 212.292 328.089 319.96C203.624 450.547 144.45 787.218 356.921 1018.71" stroke="#D9D9D9" stroke-width="80" stroke-linecap="round"/>
<path d="M3146.48 222.02C3270.43 225.265 3443.77 212.292 3546.4 319.96C3670.86 450.547 3730.04 787.218 3517.56 1018.71" stroke="#D9D9D9" stroke-width="80" stroke-linecap="round"/>
<line x1="897.249" y1="1006.36" x2="2977.25" y2="1006.36" stroke="#D9D9D9" stroke-width="80"/>
<line x1="737.249" y1="221.698" x2="3137.25" y2="221.698" stroke="#D9D9D9" stroke-width="80" stroke-linecap="round"/>
</svg>
